<svg width="1483" height="1484" viewBox="0 0 1483 1484" fill="none" xmlns="http://www.w3.org/2000/svg">
<g clip-path="url(#clip0_463_95)">
<path fill-rule="evenodd" clip-rule="evenodd" d="M304.292 303.25C307.279 307.512 376.455 408.2 458.017 527C539.579 645.8 615.016 755.665 625.656 771.145C636.295 786.625 645 799.601 645 799.981C645 800.361 641.038 805.246 636.196 810.836C631.354 816.426 617.715 832.25 605.889 846C594.062 859.75 574.125 882.925 561.584 897.5C549.044 912.075 526.982 937.725 512.557 954.5C498.133 971.275 472.194 1001.43 454.915 1021.52C401.474 1083.65 393.762 1092.62 353.081 1140C331.359 1165.3 310.529 1189.49 306.793 1193.76C303.057 1198.02 300 1201.96 300 1202.51C300 1203.15 313.644 1203.5 338.441 1203.5H376.881L419.142 1154.25C442.386 1127.16 465.315 1100.5 470.095 1095C480.432 1083.11 559.262 991.385 565.888 983.54C568.425 980.537 572.11 976.262 574.077 974.04C576.045 971.818 591.554 953.8 608.542 934C625.529 914.2 639.895 897.515 640.464 896.922C641.034 896.33 650.027 885.867 660.449 873.672C670.871 861.478 679.72 851.5 680.113 851.5C680.507 851.5 734.043 929.013 799.084 1023.75C864.124 1118.49 918.5 1197.68 919.92 1199.73L922.5 1203.46L1054.36 1203.48C1162.79 1203.5 1186.13 1203.27 1185.71 1202.19C1185.27 1201.04 1122.1 1108.89 960.025 873C843.352 703.184 827.838 680.364 828.283 679.206C828.715 678.08 844.607 659.493 949.085 537.917C967.007 517.063 991.712 488.3 1003.99 474C1016.26 459.7 1028.65 445.3 1031.52 442C1034.39 438.7 1049.5 421.15 1065.08 403C1080.67 384.85 1107.16 354.01 1123.96 334.467C1140.76 314.924 1155.12 298.162 1155.87 297.217C1157.17 295.6 1154.97 295.5 1118.2 295.5H1079.15L1061.79 315.75C1038.68 342.7 996.894 391.299 985.03 405.032C979.789 411.1 973.25 418.726 970.5 421.978C967.75 425.23 962.324 431.515 958.443 435.945C954.562 440.375 935.003 463.125 914.978 486.5C894.954 509.875 878.296 529.225 877.96 529.5C877.625 529.775 873.334 534.752 868.425 540.561C859.839 550.721 851.101 560.891 811.027 607.365C793.437 627.765 792.535 628.641 791.052 626.766C790.199 625.686 738.65 550.713 676.5 460.161L563.5 295.521L431.181 295.51L298.862 295.5L304.292 303.25ZM407.565 357.242C408.559 358.759 433.281 394.2 462.504 436C517.927 515.276 735.717 826.986 875.781 1027.5C920.539 1091.57 957.705 1144.57 958.373 1145.26C959.327 1146.25 972.359 1146.46 1019.27 1146.26L1078.95 1146L922.776 922.5C836.881 799.575 712.52 621.6 646.418 527L526.232 355L465.996 354.742L405.76 354.484L407.565 357.242Z" fill="#FAFAFA"/>
<path fill-rule="evenodd" clip-rule="evenodd" d="M0 742.001V1483.5L741.75 1483.25L1483.5 1483L1483.75 741.75L1484 0.5H742.001H0V742.001ZM0.497 742.5C0.497 1150.33 0.611 1317.16 0.75 1113.25C0.889 909.337 0.889 575.662 0.75 371.75C0.611 167.837 0.497 334.675 0.497 742.5ZM304.292 303.25C307.279 307.512 376.455 408.2 458.017 527C539.579 645.8 615.016 755.665 625.656 771.145C636.295 786.625 645 799.601 645 799.981C645 800.361 641.038 805.246 636.196 810.836C631.354 816.426 617.715 832.25 605.889 846C594.062 859.75 574.125 882.925 561.584 897.5C549.044 912.075 526.982 937.725 512.557 954.5C498.133 971.275 472.194 1001.43 454.915 1021.52C401.474 1083.65 393.762 1092.62 353.081 1140C331.359 1165.3 310.529 1189.49 306.793 1193.76C303.057 1198.02 300 1201.96 300 1202.51C300 1203.15 313.644 1203.5 338.441 1203.5H376.881L419.142 1154.25C442.386 1127.16 465.315 1100.5 470.095 1095C480.432 1083.11 559.262 991.385 565.888 983.54C568.425 980.537 572.11 976.262 574.077 974.04C576.045 971.818 591.554 953.8 608.542 934C625.529 914.2 639.895 897.515 640.464 896.922C641.034 896.33 650.027 885.867 660.449 873.672C670.871 861.478 679.72 851.5 680.113 851.5C680.507 851.5 734.043 929.013 799.084 1023.75C864.124 1118.49 918.5 1197.68 919.92 1199.73L922.5 1203.46L1054.36 1203.48C1162.79 1203.5 1186.12 1203.27 1185.71 1202.19C1185.27 1201.04 1122.1 1108.89 960.025 873C843.352 703.184 827.838 680.364 828.283 679.206C828.715 678.08 844.607 659.493 949.085 537.917C967.007 517.063 991.712 488.3 1003.98 474C1016.26 459.7 1028.65 445.3 1031.52 442C1034.39 438.7 1049.5 421.15 1065.08 403C1080.67 384.85 1107.16 354.01 1123.96 334.467C1140.76 314.924 1155.12 298.162 1155.87 297.217C1157.16 295.6 1154.97 295.5 1118.2 295.5H1079.15L1061.79 315.75C1038.67 342.7 996.894 391.299 985.03 405.032C979.789 411.1 973.25 418.726 970.5 421.978C967.75 425.23 962.324 431.515 958.443 435.945C954.562 440.375 935.003 463.125 914.978 486.5C894.954 509.875 878.296 529.225 877.96 529.5C877.625 529.775 873.334 534.752 868.425 540.561C859.839 550.721 851.101 560.891 811.027 607.365C793.437 627.765 792.535 628.641 791.052 626.766C790.199 625.686 738.65 550.713 676.5 460.161L563.5 295.521L431.181 295.51L298.862 295.5L304.292 303.25ZM407.565 357.242C408.559 358.759 433.281 394.2 462.504 436C517.927 515.276 735.717 826.986 875.781 1027.5C920.539 1091.57 957.705 1144.57 958.373 1145.26C959.327 1146.25 972.359 1146.46 1019.27 1146.26L1078.95 1146L922.776 922.5C836.881 799.575 712.52 621.6 646.418 527L526.232 355L465.996 354.742L405.76 354.484L407.565 357.242Z" fill="#040404"/>
</g>
<defs>
<clipPath id="clip0_463_95">
<rect width="1483" height="1483" fill="white" transform="translate(0 0.5)"/>
</clipPath>
</defs>
</svg>
